<svg width="30" height="30" viewBox="0 0 30 30" fill="none" xmlns="http://www.w3.org/2000/svg">
<path d="M18.6751 7.32299C17.8545 6.46346 16.7223 5.93066 15.4761 5.93066C12.985 5.93066 10.9473 8.06282 10.9473 10.6708L10.9667 10.8614L11.2352 13.6001C11.2352 13.7711 11.2463 13.9395 11.2685 14.105C11.4382 15.404 12.2463 16.4779 13.1935 17.1747C13.9501 17.7339 14.7958 18.0524 15.4759 18.0524C16.1673 18.0524 16.8724 17.8299 17.5025 17.4347C17.892 17.1913 18.2536 16.8825 18.5651 16.5209C19.2606 15.717 19.7181 14.6516 19.7181 13.4553L20.0047 10.6707C20.0047 9.366 19.4957 8.18087 18.675 7.32266L18.6751 7.32299Z" stroke="#231F20" stroke-linecap="round" stroke-linejoin="round"/>
<path d="M15.9757 21.8365C15.9757 22.1491 15.7224 22.4025 15.4097 22.4025C15.0971 22.4025 14.8438 22.1491 14.8438 21.8365C14.8438 21.5239 15.0971 21.2705 15.4097 21.2705C15.7224 21.2705 15.9757 21.5239 15.9757 21.8365Z" stroke="#231F20" stroke-linecap="round" stroke-linejoin="round"/>
<path d="M17.504 17.4348V18.4836C17.504 18.4836 17.4386 18.9399 17.7029 19.2376C17.8322 19.3822 18.0381 19.4893 18.3664 19.4893C18.3664 19.4893 18.4095 19.4949 18.4887 19.5102C19.2606 19.6452 22.9048 20.5145 23.5558 23.5118H7.00391C7.65491 20.5145 11.4381 19.6452 12.2101 19.5102C12.2895 19.4949 12.3325 19.4893 12.3325 19.4893C12.6607 19.4893 12.8666 19.3822 12.9959 19.2376C13.2603 18.9399 13.1948 18.4836 13.1948 18.4836V17.1748" stroke="#231F20" stroke-linecap="round" stroke-linejoin="round"/>
<path d="M10.9658 11.3394C10.8018 11.3586 10.6522 11.4204 10.5306 11.5102C10.3145 11.6704 10.1841 11.9203 10.2054 12.1886L10.2603 12.8748C10.294 13.3033 10.7053 13.6246 11.1752 13.5899H11.181L11.0246 11.6424" stroke="#231F20" stroke-linecap="round" stroke-linejoin="round"/>
<path d="M20.0546 11.3356L19.8672 13.588C20.339 13.6273 20.7546 13.3069 20.7905 12.8759L20.8476 12.1903C20.8835 11.7595 20.5267 11.3748 20.0548 11.3354L20.0546 11.3356Z" stroke="#231F20" stroke-linecap="round" stroke-linejoin="round"/>
<path d="M12.332 19.4893C12.332 19.4893 15.3561 21.5814 18.4883 19.5102" stroke="#231F20" stroke-linecap="round" stroke-linejoin="round"/>
<path d="M18.7653 7.20828C17.8943 6.27735 16.7393 5.76465 15.5128 5.76465C12.976 5.76465 10.9121 7.96555 10.9121 10.6708C10.9121 10.6765 10.9124 10.6821 10.9129 10.6878L10.9868 11.4522H11.3141C12.0434 11.3727 13.8372 11.0667 14.4904 9.95691C14.7135 10.5558 15.3205 11.4676 16.9473 11.4676C19.0713 11.4676 19.4653 12.7309 19.4808 12.7839C19.4937 12.8299 19.5254 12.8639 19.5641 12.8842L19.8937 12.8599L20.1127 10.6881C20.1132 10.6825 20.1135 10.6768 20.1135 10.671C20.1135 9.36601 19.6347 8.13606 18.7655 7.20861L18.7653 7.20828Z" stroke="#231F20" stroke-linecap="round" stroke-linejoin="round"/>
</svg>
