<svg width="43" height="34" viewBox="0 0 43 34" fill="none" xmlns="http://www.w3.org/2000/svg">
<path d="M38.7 4.25C39.8892 4.25 40.85 5.19961 40.85 6.375V21.25C40.85 22.4254 39.8892 23.375 38.7 23.375H10.75C9.56078 23.375 8.6 22.4254 8.6 21.25V6.375C8.6 5.19961 9.56078 4.25 10.75 4.25H38.7ZM10.75 2.125C8.37828 2.125 6.45 4.03086 6.45 6.375V21.25C6.45 23.5941 8.37828 25.5 10.75 25.5H38.7C41.0717 25.5 43 23.5941 43 21.25V6.375C43 4.03086 41.0717 2.125 38.7 2.125H10.75ZM24.725 18.0625C23.5846 18.0625 22.4908 17.6147 21.6844 16.8177C20.878 16.0207 20.425 14.9397 20.425 13.8125C20.425 12.6853 20.878 11.6043 21.6844 10.8073C22.4908 10.0103 23.5846 9.5625 24.725 9.5625C25.8654 9.5625 26.9592 10.0103 27.7656 10.8073C28.572 11.6043 29.025 12.6853 29.025 13.8125C29.025 14.9397 28.572 16.0207 27.7656 16.8177C26.9592 17.6147 25.8654 18.0625 24.725 18.0625ZM18.275 13.8125C18.275 15.5033 18.9546 17.1248 20.1642 18.3203C21.3738 19.5159 23.0144 20.1875 24.725 20.1875C26.4356 20.1875 28.0762 19.5159 29.2858 18.3203C30.4955 17.1248 31.175 15.5033 31.175 13.8125C31.175 12.1217 30.4955 10.5002 29.2858 9.30469C28.0762 8.10915 26.4356 7.4375 24.725 7.4375C23.0144 7.4375 21.3738 8.10915 20.1642 9.30469C18.9546 10.5002 18.275 12.1217 18.275 13.8125ZM2.15 7.4375C2.15 6.85313 1.66625 6.375 1.075 6.375C0.48375 6.375 0 6.85313 0 7.4375V24.4375C0 28.548 3.36609 31.875 7.525 31.875H35.475C36.0662 31.875 36.55 31.3969 36.55 30.8125C36.55 30.2281 36.0662 29.75 35.475 29.75H7.525C4.55531 29.75 2.15 27.3727 2.15 24.4375V7.4375Z" fill="white"/>
</svg>
