<svg width="40" height="40" viewBox="0 0 40 40" fill="none" xmlns="http://www.w3.org/2000/svg">
<path d="M14.8906 5.57812C15.8594 3.74219 17.7891 2.5 20 2.5C22.2109 2.5 24.1406 3.74219 25.1094 5.57812C25.3906 6.10938 26.0078 6.36719 26.5781 6.1875C28.5625 5.57812 30.8047 6.0625 32.3672 7.625C33.9297 9.1875 34.4141 11.4297 33.8047 13.4141C33.625 13.9844 33.8828 14.6016 34.4141 14.8828C36.2578 15.8594 37.5 17.7891 37.5 20C37.5 22.2109 36.2578 24.1406 34.4219 25.1094C33.8906 25.3906 33.6328 26.0078 33.8125 26.5781C34.4219 28.5625 33.9375 30.8047 32.375 32.3672C30.8125 33.9297 28.5703 34.4141 26.5859 33.8047C26.0156 33.625 25.3984 33.8828 25.1172 34.4141C24.1406 36.2578 22.2109 37.5 20 37.5C17.7891 37.5 15.8594 36.2578 14.8906 34.4219C14.6094 33.8906 13.9922 33.6328 13.4219 33.8125C11.4375 34.4219 9.19531 33.9375 7.63281 32.375C6.07031 30.8125 5.58594 28.5703 6.19531 26.5859C6.375 26.0156 6.11719 25.3984 5.58594 25.1172C3.74219 24.1406 2.5 22.2109 2.5 20C2.5 17.7891 3.74219 15.8594 5.57812 14.8906C6.10938 14.6094 6.36719 13.9922 6.1875 13.4219C5.57812 11.4375 6.0625 9.19531 7.625 7.63281C9.1875 6.07031 11.4297 5.58594 13.4141 6.19531C13.9844 6.375 14.6016 6.11719 14.8828 5.58594L14.8906 5.57812ZM20 0C17.1797 0 14.6875 1.41406 13.1953 3.5625C10.6172 3.09375 7.85938 3.85938 5.85938 5.85938C3.85938 7.85938 3.10156 10.6172 3.5625 13.1953C1.41406 14.6875 0 17.1797 0 20C0 22.8203 1.41406 25.3125 3.5625 26.8047C3.09375 29.3828 3.85938 32.1406 5.85938 34.1406C7.85938 36.1406 10.6172 36.8984 13.1953 36.4375C14.6875 38.5859 17.1797 40 20 40C22.8203 40 25.3125 38.5859 26.8047 36.4375C29.3828 36.9062 32.1406 36.1406 34.1406 34.1406C36.1406 32.1406 36.8984 29.3828 36.4375 26.8047C38.5859 25.3125 40 22.8203 40 20C40 17.1797 38.5859 14.6875 36.4375 13.1953C36.9062 10.6172 36.1406 7.85938 34.1406 5.85938C32.1406 3.85938 29.3828 3.10156 26.8047 3.5625C25.3125 1.41406 22.8203 0 20 0ZM28.3828 15.8828C28.8672 15.3984 28.8672 14.6016 28.3828 14.1172C27.8984 13.6328 27.1016 13.6328 26.6172 14.1172L17.5 23.2344L13.3828 19.1172C12.8984 18.6328 12.1016 18.6328 11.6172 19.1172C11.1328 19.6016 11.1328 20.3984 11.6172 20.8828L16.6172 25.8828C17.1016 26.3672 17.8984 26.3672 18.3828 25.8828L28.3828 15.8828Z" fill="white"/>
</svg>
