<svg width="18" height="18" viewBox="0 0 18 18" fill="none" xmlns="http://www.w3.org/2000/svg">
<path d="M8.99996 0.666748C4.40829 0.666748 0.666626 4.40841 0.666626 9.00008C0.666626 13.5917 4.40829 17.3334 8.99996 17.3334C13.5916 17.3334 17.3333 13.5917 17.3333 9.00008C17.3333 4.40841 13.5916 0.666748 8.99996 0.666748ZM12.3833 10.4917C12.2583 10.6167 12.1 10.6751 11.9416 10.6751C11.7833 10.6751 11.625 10.6167 11.5 10.4917L8.99996 7.99175L6.49996 10.4917C6.25829 10.7334 5.85829 10.7334 5.61663 10.4917C5.37496 10.2501 5.37496 9.85008 5.61663 9.60841L8.55829 6.66675C8.79996 6.42508 9.19996 6.42508 9.44163 6.66675L12.3833 9.60841C12.625 9.85841 12.625 10.2501 12.3833 10.4917Z" fill="#172A25"/>
</svg>
