<svg width="18" height="18" viewBox="0 0 18 18" fill="none" xmlns="http://www.w3.org/2000/svg">
<path d="M8.99996 0.666748C4.40829 0.666748 0.666626 4.40841 0.666626 9.00008C0.666626 13.5917 4.40829 17.3334 8.99996 17.3334C13.5916 17.3334 17.3333 13.5917 17.3333 9.00008C17.3333 4.40841 13.5916 0.666748 8.99996 0.666748ZM12.3833 8.39175L9.44163 11.3334C9.31663 11.4584 9.15829 11.5167 8.99996 11.5167C8.84163 11.5167 8.68329 11.4584 8.55829 11.3334L5.61663 8.39175C5.37496 8.15008 5.37496 7.75008 5.61663 7.50841C5.85829 7.26675 6.25829 7.26675 6.49996 7.50841L8.99996 10.0084L11.5 7.50841C11.7416 7.26675 12.1416 7.26675 12.3833 7.50841C12.625 7.75008 12.625 8.14175 12.3833 8.39175Z" fill="#172A25"/>
</svg>
