<svg width="45" height="40" viewBox="0 0 45 40" fill="none" xmlns="http://www.w3.org/2000/svg">
<path d="M15 10C15 5.85938 18.3594 2.5 22.5 2.5C26.6406 2.5 30 5.85938 30 10C30 10.6875 30.5625 11.25 31.25 11.25C31.9375 11.25 32.5 10.6875 32.5 10C32.5 4.47656 28.0234 0 22.5 0C16.9766 0 12.5 4.47656 12.5 10C12.5 13.125 13.9375 15.9219 16.1797 17.75L11.5078 25.2344C11.0312 25.0859 10.5234 25 10 25C7.24219 25 5 27.2422 5 30C5 32.7578 7.24219 35 10 35C12.7578 35 15 32.7578 15 30C15 28.6641 14.4766 27.4531 13.625 26.5547L18.5938 18.6094C19.1562 17.7109 18.8438 16.6172 18.0859 16.0547C16.2109 14.6953 15 12.4922 15 10ZM12.5 30C12.5 30.663 12.2366 31.2989 11.7678 31.7678C11.2989 32.2366 10.663 32.5 10 32.5C9.33696 32.5 8.70107 32.2366 8.23223 31.7678C7.76339 31.2989 7.5 30.663 7.5 30C7.5 29.337 7.76339 28.7011 8.23223 28.2322C8.70107 27.7634 9.33696 27.5 10 27.5C10.663 27.5 11.2989 27.7634 11.7678 28.2322C12.2366 28.7011 12.5 29.337 12.5 30ZM22.5 12.5C21.837 12.5 21.2011 12.2366 20.7322 11.7678C20.2634 11.2989 20 10.663 20 10C20 9.33696 20.2634 8.70107 20.7322 8.23223C21.2011 7.76339 21.837 7.5 22.5 7.5C23.163 7.5 23.7989 7.76339 24.2678 8.23223C24.7366 8.70107 25 9.33696 25 10C25 10.663 24.7366 11.2989 24.2678 11.7678C23.7989 12.2366 23.163 12.5 22.5 12.5ZM17.5 10C17.5 12.7578 19.7422 15 22.5 15C23.0234 15 23.5312 14.9219 24.0078 14.7656L28.9688 22.7109C29.5312 23.6094 30.6562 23.8125 31.4844 23.3672C32.5391 22.8125 33.7266 22.5 35 22.5C39.1406 22.5 42.5 25.8594 42.5 30C42.5 34.1406 39.1406 37.5 35 37.5C33.5391 37.5 32.1797 37.0859 31.0234 36.3594C30.4375 35.9922 29.6641 36.1719 29.2969 36.7578C28.9297 37.3438 29.1094 38.1172 29.6953 38.4844C31.2344 39.4453 33.0547 40.0078 35 40.0078C40.5234 40.0078 45 35.5312 45 30.0078C45 24.4844 40.5234 20.0078 35 20.0078C33.5 20.0078 32.0781 20.3359 30.7969 20.9297L26.125 13.4531C26.9766 12.5547 27.5 11.3438 27.5 10.0078C27.5 7.25 25.2578 5.00781 22.5 5.00781C19.7422 5.00781 17.5 7.25 17.5 10.0078V10ZM5.71875 23.8438C6.28125 23.4453 6.42188 22.6719 6.03125 22.1016C5.64062 21.5312 4.85938 21.3984 4.28906 21.7891C1.69531 23.6016 0 26.6016 0 30C0 35.5234 4.47656 40 10 40C15.1016 40 19.3047 36.1797 19.9219 31.25H30.1562C30.7109 33.4062 32.6719 35 35 35C37.7578 35 40 32.7578 40 30C40 27.2422 37.7578 25 35 25C32.6719 25 30.7109 26.5938 30.1562 28.75H19.375C18.3203 28.75 17.5469 29.5938 17.4844 30.5391C17.2031 34.4297 13.9609 37.5 10 37.5C5.85938 37.5 2.5 34.1406 2.5 30C2.5 27.4531 3.76562 25.2031 5.71875 23.8438ZM37.5 30C37.5 30.663 37.2366 31.2989 36.7678 31.7678C36.2989 32.2366 35.663 32.5 35 32.5C34.337 32.5 33.7011 32.2366 33.2322 31.7678C32.7634 31.2989 32.5 30.663 32.5 30C32.5 29.337 32.7634 28.7011 33.2322 28.2322C33.7011 27.7634 34.337 27.5 35 27.5C35.663 27.5 36.2989 27.7634 36.7678 28.2322C37.2366 28.7011 37.5 29.337 37.5 30Z" fill="white"/>
</svg>
