<svg width="30" height="30" viewBox="0 0 30 30" fill="none" xmlns="http://www.w3.org/2000/svg">
<path d="M18.373 8.31982H21.5281V17.3952" stroke="#231F20" stroke-linecap="round" stroke-linejoin="round"/>
<path d="M11.1408 8.31982H7.98438V11.0316V11.7439V23.702H20.0591" stroke="#231F20" stroke-linecap="round" stroke-linejoin="round"/>
<path d="M20.7383 13.9482V17.4933" stroke="#231F20" stroke-linecap="round" stroke-linejoin="round"/>
<path d="M18.373 9.10889H20.739V14.3204" stroke="#231F20" stroke-linecap="round" stroke-linejoin="round"/>
<path d="M11.1407 9.10889H8.77344V22.9141H18.8415" stroke="#231F20" stroke-linecap="round" stroke-linejoin="round"/>
<path d="M15.9602 7.92519C15.8157 7.39505 15.3322 7.00488 14.7563 7.00488C14.1803 7.00488 13.6968 7.39522 13.5524 7.92519H11.1406V9.50297H18.3719V7.92519H15.9602Z" stroke="#231F20" stroke-linecap="round" stroke-linejoin="round"/>
<path d="M10.541 13.019L11.2641 13.9487L12.5038 12.5024" stroke="#231F20" stroke-linecap="round" stroke-linejoin="round"/>
<path d="M10.541 15.517L11.2641 16.4468L12.5038 15.0005" stroke="#231F20" stroke-linecap="round" stroke-linejoin="round"/>
<path d="M12.18 18.1562H10.8652V19.471H12.18V18.1562Z" stroke="#231F20" stroke-linecap="round" stroke-linejoin="round"/>
<path d="M13.8887 12.2393H18.6219" stroke="#231F20" stroke-linecap="round" stroke-linejoin="round"/>
<path d="M13.8887 13.7646H18.6219" stroke="#231F20" stroke-linecap="round" stroke-linejoin="round"/>
<path d="M13.8887 15.2896H18.6219" stroke="#231F20" stroke-linecap="round" stroke-linejoin="round"/>
<path d="M13.8887 16.8149H18.6219" stroke="#231F20" stroke-linecap="round" stroke-linejoin="round"/>
<path d="M13.8887 18.3398H18.6219" stroke="#231F20" stroke-linecap="round" stroke-linejoin="round"/>
<path d="M18.0934 19.8647H13.8887" stroke="#231F20" stroke-linecap="round" stroke-linejoin="round"/>
<path d="M24.381 21.189C24.6654 19.4359 23.4749 17.7842 21.7219 17.4998C19.9688 17.2153 18.3171 18.4058 18.0326 20.1589C17.7482 21.9119 18.9387 23.5636 20.6917 23.8481C22.4448 24.1325 24.0965 22.942 24.381 21.189Z" stroke="#231F20" stroke-linecap="round" stroke-linejoin="round"/>
<path d="M22.9522 20.1246H21.7568V18.9292H20.6585V20.1246H19.4629V21.2229H20.6585V22.4185H21.7568V21.2229H22.9522V20.1246Z" stroke="#231F20" stroke-linecap="round" stroke-linejoin="round"/>
</svg>
