<svg width="16" height="18" viewBox="0 0 16 18" fill="none" xmlns="http://www.w3.org/2000/svg">
<path fill-rule="evenodd" clip-rule="evenodd" d="M0.916748 7.59812C0.916748 3.7649 4.11998 0.666656 7.99462 0.666656C11.8802 0.666656 15.0834 3.7649 15.0834 7.59812C15.0834 9.52973 14.3809 11.323 13.2247 12.843C11.9491 14.5196 10.3769 15.9804 8.6072 17.127C8.20217 17.392 7.83664 17.412 7.39212 17.127C5.61236 15.9804 4.04015 14.5196 2.7755 12.843C1.6184 11.323 0.916748 9.52973 0.916748 7.59812ZM5.66194 7.81395C5.66194 9.09808 6.7098 10.108 7.99462 10.108C9.28028 10.108 10.3382 9.09808 10.3382 7.81395C10.3382 6.53982 9.28028 5.48068 7.99462 5.48068C6.7098 5.48068 5.66194 6.53982 5.66194 7.81395Z" fill="#18F1A1"/>
</svg>
