<svg width="30" height="30" viewBox="0 0 30 30" fill="none" xmlns="http://www.w3.org/2000/svg">
<path d="M10.041 23.9941V12.2665C10.041 11.9501 10.2982 11.6914 10.6161 11.6914H19.9548C20.2728 11.6914 20.53 11.9501 20.53 12.2665V23.4188C20.53 23.7367 20.2728 23.9939 19.9548 23.9939H10.041" stroke="#231F20" stroke-linecap="round" stroke-linejoin="round"/>
<path d="M20.5297 14.4586V23.5343C20.5297 23.7887 20.3245 23.9939 20.0716 23.9939H12.7721C12.5192 23.9939 12.3125 23.7887 12.3125 23.5343V14.4586C12.3125 14.2042 12.5192 13.999 12.7721 13.999H20.0716C20.3245 13.999 20.5297 14.2042 20.5297 14.4586Z" stroke="#231F20" stroke-linecap="round" stroke-linejoin="round"/>
<path d="M19.6105 8.09912H10.9291C10.7676 8.09912 10.6367 8.23002 10.6367 8.3915V11.3995C10.6367 11.5609 10.7676 11.6918 10.9291 11.6918H19.6105C19.772 11.6918 19.9029 11.5609 19.9029 11.3995V8.3915C19.9029 8.23002 19.772 8.09912 19.6105 8.09912Z" stroke="#231F20" stroke-linecap="round" stroke-linejoin="round"/>
<path d="M12.0293 9.03223V11.0291" stroke="#231F20" stroke-linecap="round" stroke-linejoin="round"/>
<path d="M13.3262 9.03223V11.0291" stroke="#231F20" stroke-linecap="round" stroke-linejoin="round"/>
<path d="M14.6211 9.03223V11.0291" stroke="#231F20" stroke-linecap="round" stroke-linejoin="round"/>
<path d="M15.918 9.03223V11.0291" stroke="#231F20" stroke-linecap="round" stroke-linejoin="round"/>
<path d="M17.2129 9.03223V11.0291" stroke="#231F20" stroke-linecap="round" stroke-linejoin="round"/>
<path d="M18.5098 9.03223V11.0291" stroke="#231F20" stroke-linecap="round" stroke-linejoin="round"/>
<path d="M18.7004 17.7697H17.1388V16.208H15.7041V17.7697H14.1426V19.2044H15.7041V20.7659H17.1388V19.2044H18.7004V17.7697Z" stroke="#231F20" stroke-linecap="round" stroke-linejoin="round"/>
</svg>
