<svg width="30" height="30" viewBox="0 0 30 30" fill="none" xmlns="http://www.w3.org/2000/svg">
<path d="M16.9823 19.5916V20.487C16.9823 22.5209 15.3178 24.1852 13.2841 24.1852C12.2672 24.1852 11.3429 23.7688 10.6726 23.0985C10.0023 22.4283 9.58594 21.504 9.58594 20.487V19.2275" stroke="#231F20" stroke-linecap="round" stroke-linejoin="round"/>
<path d="M12.5332 10.709V15.7614C12.5332 16.4342 12.9785 17.0263 13.626 17.2116L15.6539 17.7917" stroke="#231F20" stroke-linecap="round" stroke-linejoin="round"/>
<path d="M15.1771 8.80762H14.0411C13.2083 8.80762 12.5332 9.4827 12.5332 10.3155V10.7087" stroke="#231F20" stroke-linecap="round" stroke-linejoin="round"/>
<path d="M15.7422 9.37217C16.054 9.37217 16.3067 9.11943 16.3067 8.80767C16.3067 8.4959 16.054 8.24316 15.7422 8.24316C15.4305 8.24316 15.1777 8.4959 15.1777 8.80767C15.1777 9.11943 15.4305 9.37217 15.7422 9.37217Z" stroke="#231F20" stroke-linecap="round" stroke-linejoin="round"/>
<path d="M18.0684 9.37217C18.3802 9.37217 18.6329 9.11943 18.6329 8.80767C18.6329 8.4959 18.3802 8.24316 18.0684 8.24316C17.7566 8.24316 17.5039 8.4959 17.5039 8.80767C17.5039 9.11943 17.7566 9.37217 18.0684 9.37217Z" stroke="#231F20" stroke-linecap="round" stroke-linejoin="round"/>
<path d="M21.3862 14.5132V15.7612C21.3862 16.434 20.9409 17.0261 20.2934 17.2113L18.2969 17.783" stroke="#231F20" stroke-linecap="round" stroke-linejoin="round"/>
<path d="M18.7402 8.80762H19.8775C20.7103 8.80762 21.3854 9.4827 21.3854 10.3155V14.5131" stroke="#231F20" stroke-linecap="round" stroke-linejoin="round"/>
<path d="M18.0113 17.6963H15.9534C15.6684 17.6963 15.4375 17.9272 15.4375 18.2121C15.4375 18.4971 15.6684 18.728 15.9534 18.728H16.3168C16.3158 18.7415 16.3128 18.7542 16.3128 18.7678V19.0753C16.3128 19.3602 16.5438 19.5912 16.8287 19.5912H17.1362C17.4211 19.5912 17.652 19.3602 17.652 19.0753V18.7678C17.652 18.7542 17.649 18.7415 17.648 18.728H18.0113C18.2962 18.728 18.5272 18.4971 18.5272 18.2121C18.5272 17.9272 18.2962 17.6963 18.0113 17.6963Z" stroke="#231F20" stroke-linecap="round" stroke-linejoin="round"/>
<path d="M9.62135 19.1011C10.4089 19.1011 11.0474 18.4626 11.0474 17.6751C11.0474 16.8875 10.4089 16.249 9.62135 16.249C8.83377 16.249 8.19531 16.8875 8.19531 17.6751C8.19531 18.4626 8.83377 19.1011 9.62135 19.1011Z" stroke="#231F20" stroke-linecap="round" stroke-linejoin="round"/>
<path d="M10.1886 17.6754C10.1886 17.988 9.93527 18.2414 9.62264 18.2414C9.31 18.2414 9.05664 17.988 9.05664 17.6754C9.05664 17.3627 9.31 17.1094 9.62264 17.1094C9.93527 17.1094 10.1886 17.3627 10.1886 17.6754Z" stroke="#231F20" stroke-linecap="round" stroke-linejoin="round"/>
</svg>
