<svg width="30" height="30" viewBox="0 0 30 30" fill="none" xmlns="http://www.w3.org/2000/svg">
<path d="M7.07031 13.593V8.27539H20.9956V14.3787" stroke="#231F20" stroke-linecap="round" stroke-linejoin="round"/>
<path d="M20.9956 17.2072V23.6875H7.07031V12.7959" stroke="#231F20" stroke-linecap="round" stroke-linejoin="round"/>
<path d="M16.7949 18.7026C16.6142 18.8301 16.4628 19.0055 16.3685 19.2114C16.3566 19.2379 16.3446 19.2632 16.3326 19.2897C16.0564 19.918 16.0152 20.4772 16.1679 20.6485C16.3393 20.8013 16.8985 20.7601 17.5267 20.4838C17.5533 20.4719 17.5785 20.4599 17.6051 20.4479C17.8243 20.347 18.0089 20.1823 18.1377 19.987" stroke="#231F20" stroke-linecap="round" stroke-linejoin="round"/>
<path d="M16.7944 18.7026C16.6138 18.8301 16.4624 19.0055 16.3681 19.2114C16.3561 19.2379 16.3442 19.2632 16.3322 19.2897C16.0626 19.9259 16.1011 20.5808 16.1675 20.6485C16.2339 20.7149 16.8901 20.7534 17.5263 20.4838C17.5529 20.4719 17.5781 20.4599 17.6047 20.4479C17.8238 20.347 18.0085 20.1823 18.1373 19.987" stroke="#231F20" stroke-linecap="round" stroke-linejoin="round"/>
<path d="M22.5942 12.7812L22.5618 12.8136L16.8904 18.4851C16.7657 18.6097 16.7657 18.8113 16.8904 18.9343L17.8552 19.8991C17.9782 20.0238 18.1798 20.0238 18.3045 19.8991L23.9759 14.2277L24.0083 14.1953" stroke="#231F20" stroke-linecap="round" stroke-linejoin="round"/>
<path d="M23.9727 14.2275L22.5582 12.8131L23.4978 11.8734C23.6179 11.7533 23.8128 11.7533 23.9329 11.8734L24.9122 12.8526C25.0323 12.9727 25.0322 13.1677 24.9122 13.2877L23.9727 14.2273L23.9727 14.2275Z" stroke="#231F20" stroke-linecap="round" stroke-linejoin="round"/>
<path d="M23.9798 14.2271L24.5206 14.7678L23.2363 16.0521" stroke="#231F20" stroke-linecap="round" stroke-linejoin="round"/>
<path d="M10.346 21.2002C11.027 20.6651 11.7833 20.2223 12.5832 19.8902L12.3488 19.5854C11.8924 20.2287 11.1803 20.6305 10.6941 21.249C10.5602 21.4195 10.7293 21.7127 10.9457 21.5749C11.5734 21.175 12.2128 20.7941 12.8633 20.4323L12.5794 20.1484C12.437 20.4159 12.2366 20.632 12.0284 20.8492C11.8587 21.0262 12.0715 21.2734 12.2799 21.1751C12.9978 20.8367 13.7162 20.499 14.4429 20.1798C14.3591 20.0712 14.2753 19.9624 14.1914 19.8538C13.9357 20.1426 13.6799 20.4315 13.4242 20.7202C13.2993 20.8612 13.4169 21.1464 13.6261 21.067C14.3911 20.777 15.1562 20.4869 15.9214 20.1969L15.6588 19.9968C15.6568 20.0418 15.3727 20.2693 15.3038 20.3357C15.1555 20.4785 15.0071 20.6211 14.8588 20.7639C14.7129 20.9043 14.862 21.1758 15.0607 21.1107C15.388 21.0036 15.7154 20.8965 16.0426 20.7896C16.2953 20.7069 16.1873 20.3059 15.9322 20.3893C15.605 20.4964 15.2776 20.6035 14.9503 20.7104L15.1522 21.0572C15.35 20.867 15.5479 20.6767 15.7456 20.4863C15.8959 20.3418 16.0637 20.219 16.0739 19.9966C16.0797 19.8708 15.9352 19.7496 15.8112 19.7966C15.0461 20.0866 14.2811 20.3767 13.5158 20.6667L13.7177 21.0136C13.9734 20.7248 14.2293 20.436 14.4849 20.1472C14.6478 19.9633 14.4463 19.7277 14.2334 19.8213C13.5067 20.1407 12.7885 20.4785 12.0704 20.8167L12.3219 21.1426C12.5535 20.9012 12.7797 20.6551 12.9379 20.3578C13.035 20.1753 12.8388 19.9711 12.654 20.0738C12.0035 20.4355 11.3641 20.8165 10.7363 21.2165C10.8202 21.325 10.904 21.4338 10.9879 21.5424C11.4967 20.8949 12.2281 20.4702 12.7074 19.7947C12.8067 19.6549 12.6387 19.4212 12.473 19.4899C11.6013 19.8515 10.7946 20.3237 10.0524 20.9066C9.84258 21.0715 10.1381 21.3634 10.346 21.2002Z" fill="#231F20"/>
<path d="M21.0291 7.59513H15.5586C15.5654 7.53934 15.5689 7.48256 15.5689 7.42445C15.5689 6.57587 14.8819 5.88867 14.0331 5.88867C13.1844 5.88867 12.4973 6.5757 12.4973 7.42445C12.4973 7.4824 12.5008 7.53934 12.5076 7.59513H7.03711" stroke="#231F20" stroke-linejoin="round"/>
<path d="M9.97656 11.791H18.0878" stroke="#231F20" stroke-linejoin="round"/>
<path d="M9.97656 13.5933H18.0878" stroke="#231F20" stroke-linejoin="round"/>
<path d="M9.97656 15.396H18.0878" stroke="#231F20" stroke-linejoin="round"/>
<path d="M9.92969 17.1982H15.8779" stroke="#231F20" stroke-linejoin="round"/>
</svg>
