<svg width="31" height="50" viewBox="0 0 31 50" fill="none" xmlns="http://www.w3.org/2000/svg">
<path d="M15.5 7.8125C15.8053 7.8125 16.1077 7.75188 16.3898 7.63409C16.6718 7.51631 16.9281 7.34367 17.144 7.12603C17.3599 6.90839 17.5312 6.65002 17.648 6.36566C17.7649 6.08131 17.825 5.77654 17.825 5.46875C17.825 5.16096 17.7649 4.85619 17.648 4.57184C17.5312 4.28748 17.3599 4.02911 17.144 3.81147C16.9281 3.59383 16.6718 3.42119 16.3898 3.30341C16.1077 3.18562 15.8053 3.125 15.5 3.125C15.1947 3.125 14.8924 3.18562 14.6103 3.30341C14.3282 3.42119 14.0719 3.59383 13.856 3.81147C13.6401 4.02911 13.4688 4.28748 13.352 4.57184C13.2352 4.85619 13.175 5.16096 13.175 5.46875C13.175 5.77654 13.2352 6.08131 13.352 6.36566C13.4688 6.65002 13.6401 6.90839 13.856 7.12603C14.0719 7.34367 14.3282 7.51631 14.6103 7.63409C14.8924 7.75188 15.1947 7.8125 15.5 7.8125ZM15.5 0C16.9388 0 18.3187 0.57617 19.3361 1.60176C20.3535 2.62735 20.925 4.01835 20.925 5.46875C20.925 6.91915 20.3535 8.31015 19.3361 9.33574C18.3187 10.3613 16.9388 10.9375 15.5 10.9375C14.0612 10.9375 12.6813 10.3613 11.664 9.33574C10.6466 8.31015 10.075 6.91915 10.075 5.46875C10.075 4.01835 10.6466 2.62735 11.664 1.60176C12.6813 0.57617 14.0612 0 15.5 0ZM12.4 16.0156V31.25H18.6V16.0156C18.0188 15.7617 17.3891 15.625 16.7303 15.625H14.2697C13.611 15.625 12.9813 15.7617 12.4 16.0156ZM12.4 34.375V48.4375C12.4 49.2969 11.7025 50 10.85 50C9.99752 50 9.30002 49.2969 9.30002 48.4375V19.7363L4.46595 28.8574C4.05908 29.6191 3.11939 29.9023 2.36377 29.502C1.60814 29.1016 1.3272 28.1445 1.72439 27.3828L7.43033 16.6309C8.77689 14.0918 11.4022 12.5 14.2697 12.5H16.7303C19.5881 12.5 22.2231 14.0918 23.5697 16.6309L29.266 27.3926C29.6728 28.1543 29.3822 29.1016 28.6266 29.5117C27.871 29.9219 26.9313 29.6289 26.5244 28.8672L21.7 19.7461V48.4375C21.7 49.2969 21.0025 50 20.15 50C19.2975 50 18.6 49.2969 18.6 48.4375V34.375H12.4Z" fill="white"/>
</svg>
