<svg width="80" height="80" viewBox="0 0 80 80" fill="none" xmlns="http://www.w3.org/2000/svg">
<path d="M0 40C0 17.9086 17.9086 0 40 0C62.0914 0 80 17.9086 80 40C80 62.0914 62.0914 80 40 80H0V40Z" fill="#18F1A1"/>
<g clip-path="url(#clip0_1_10412)">
<path d="M22.5688 41.3016C21.0289 41.7415 20 43.1295 20 44.6875V49.375C20 50.9805 21.082 52.3383 22.5555 52.757C22.4672 52.1891 22.4219 51.6078 22.4219 51.0156C22.4219 42.4364 22.4155 42.957 22.4375 42.5336C22.4586 42.1164 22.5031 41.7055 22.5688 41.3016ZM57.4305 41.3016C57.5281 41.9008 57.5781 42.5102 57.5781 43.125V51.0156C57.5781 51.6078 57.5328 52.1891 57.4445 52.757C58.918 52.3383 60 50.9805 60 49.375V44.6875C60 43.0773 58.9109 41.7156 57.4305 41.3016ZM54.9219 41.1719H42.0016L38.0562 43.1445C37.568 43.3881 37.03 43.5151 36.4844 43.5156C35.8313 43.5156 35.1914 43.3344 34.6359 42.9906C33.5922 42.3453 32.9688 41.2273 32.9688 40V34.175C28.3789 34.5719 24.7656 38.4344 24.7656 43.125V51.0156C24.7656 55.9695 28.7961 60 33.75 60H46.25C51.2039 60 55.2344 55.9695 55.2344 51.0156V43.125C55.2344 42.4625 55.1617 41.807 55.0195 41.1703C54.9867 41.1719 54.9547 41.1719 54.9219 41.1719ZM35.3125 47.0312C35.3125 47.6784 34.7878 48.2031 34.1406 48.2031C33.4934 48.2031 32.9688 47.6784 32.9688 47.0312V44.6875C32.9688 44.0403 33.4934 43.5156 34.1406 43.5156C34.7878 43.5156 35.3125 44.0403 35.3125 44.6875V47.0312ZM42.3438 52.8906H37.6562C37.0091 52.8906 36.4844 52.3659 36.4844 51.7188C36.4844 51.0716 37.0091 50.5469 37.6562 50.5469H42.3438C42.9909 50.5469 43.5156 51.0716 43.5156 51.7188C43.5156 52.3659 42.9909 52.8906 42.3438 52.8906ZM47.0312 47.0312C47.0312 47.6784 46.5066 48.2031 45.8594 48.2031C45.2122 48.2031 44.6875 47.6784 44.6875 47.0312V44.6875C44.6875 44.0403 45.2122 43.5156 45.8594 43.5156C46.5066 43.5156 47.0312 44.0403 47.0312 44.6875V47.0312ZM24.7656 33.9391C26.1297 33.4555 27.1094 32.1523 27.1094 30.625C27.1094 28.6867 25.532 27.1094 23.5938 27.1094C21.6555 27.1094 20.0781 28.6867 20.0781 30.625C20.0781 32.1523 21.0578 33.4555 22.4219 33.9391C22.4219 36.0953 22.4219 37.7039 22.4211 38.9062L23.3469 38.6414C23.7189 37.7833 24.1955 36.9743 24.7656 36.2328V33.9391Z" fill="#172A25"/>
<path d="M54.9219 20H40.3906C37.5905 20 35.3125 22.278 35.3125 25.0781V40C35.3126 40.3108 35.4361 40.6088 35.6558 40.8286C35.8756 41.0484 36.1737 41.1718 36.4845 41.1719C36.6635 41.1719 36.8431 41.1309 37.0085 41.0481L41.4485 38.8281H54.9219C57.722 38.8281 60 36.5501 60 33.75V25.0781C60 22.278 57.722 20 54.9219 20ZM54.0625 32.9688H41.25C40.6028 32.9688 40.0781 32.4441 40.0781 31.7969C40.0781 31.1497 40.6028 30.625 41.25 30.625H54.0625C54.7097 30.625 55.2344 31.1497 55.2344 31.7969C55.2344 32.4441 54.7097 32.9688 54.0625 32.9688ZM54.0625 28.2812H41.25C40.6028 28.2812 40.0781 27.7566 40.0781 27.1094C40.0781 26.4622 40.6028 25.9375 41.25 25.9375H54.0625C54.7097 25.9375 55.2344 26.4622 55.2344 27.1094C55.2344 27.7566 54.7097 28.2812 54.0625 28.2812Z" fill="#172A25"/>
</g>
<defs>
<clipPath id="clip0_1_10412">
<rect width="40" height="40" fill="white" transform="translate(20 20)"/>
</clipPath>
</defs>
</svg>
